<svg data-v-fde0c5aa="" xmlns="http://www.w3.org/2000/svg" viewBox="0 0 300 300" class="iconLeftSlogan"><!----><defs data-v-fde0c5aa=""><!----></defs><rect data-v-fde0c5aa="" fill="#01252C" x="0" y="0" width="300px" height="300px" class="logo-background-square"></rect><defs data-v-fde0c5aa=""><!----></defs><g data-v-fde0c5aa="" id="577f06ea-6ad8-41af-9d2d-4979be7817a2" fill="#FFFFFF" transform="matrix(2.183039438046613,0,0,2.183039438046613,128.51553727225973,117.77665837495188)"><path d="M4.17 3.78C2.35 3.78 0.90 4.83 0.90 6.50C0.90 8.32 2.17 8.97 3.92 9.35L4.56 9.49C5.81 9.76 6.44 10.14 6.44 11.07C6.44 12.01 5.66 12.71 4.35 12.71C2.74 12.71 1.85 11.86 1.85 10.30L1.85 9.97L0.45 9.97L0.45 10.42C0.45 12.57 1.95 13.97 4.34 13.97C6.36 13.97 7.84 12.84 7.84 11.03C7.84 9.35 6.73 8.57 4.91 8.18L4.27 8.04C2.88 7.73 2.30 7.38 2.30 6.48C2.30 5.61 3.08 5.04 4.17 5.04C5.46 5.04 6.36 5.71 6.36 6.97L6.36 7.31L7.76 7.31L7.76 6.86C7.76 4.86 6.20 3.78 4.17 3.78ZM9.44 6.83L9.44 13.78L10.75 13.78L10.75 10.11C10.75 8.68 11.55 7.87 12.82 7.87C13.94 7.87 14.59 8.48 14.59 9.67L14.59 13.78L15.90 13.78L15.90 9.56C15.90 7.67 14.67 6.72 13.23 6.72C11.87 6.72 11.24 7.35 10.92 7.99L10.72 7.99L10.72 6.83ZM17.37 4.82C17.37 5.40 17.85 5.85 18.44 5.85C19.03 5.85 19.50 5.40 19.50 4.82C19.50 4.23 19.03 3.78 18.44 3.78C17.85 3.78 17.37 4.23 17.37 4.82ZM19.10 6.83L17.78 6.83L17.78 13.78L19.10 13.78ZM21.06 16.58L22.37 16.58L22.37 12.68L22.54 12.68C22.92 13.31 23.55 13.97 24.89 13.97C26.70 13.97 28.11 12.46 28.11 10.30C28.11 8.15 26.70 6.64 24.89 6.64C23.55 6.64 22.92 7.29 22.54 7.92L22.34 7.92L22.34 6.83L21.06 6.83ZM24.56 12.80C23.21 12.80 22.37 11.84 22.37 10.30C22.37 8.76 23.21 7.81 24.56 7.81C25.87 7.81 26.80 8.71 26.80 10.30C26.80 11.90 25.87 12.80 24.56 12.80ZM28.92 3.98L28.92 5.26L32.09 5.26L32.09 13.78L33.49 13.78L33.49 5.26L36.65 5.26L36.65 3.98ZM37.46 10.25C37.46 12.35 38.92 13.97 41.05 13.97C42.69 13.97 43.57 13.06 44.09 12.22L42.98 11.59C42.62 12.32 42.03 12.82 41.02 12.82C39.79 12.82 38.92 12.04 38.84 10.78L44.35 10.78L44.35 10.12C44.35 8.11 42.95 6.64 40.94 6.64C38.95 6.64 37.46 8.20 37.46 10.25ZM38.84 9.72C38.93 8.47 39.73 7.78 40.94 7.78C42.14 7.78 42.95 8.51 42.98 9.72ZM45.42 10.30C45.42 12.43 46.93 13.97 49 13.97C51.03 13.97 52.02 12.61 52.33 11.31L51.03 11.06C50.85 11.94 50.32 12.77 49 12.77C47.66 12.77 46.73 11.79 46.73 10.30C46.73 8.82 47.66 7.84 48.97 7.84C50.19 7.84 50.90 8.60 51.02 9.56L52.30 9.30C52.02 7.77 50.82 6.64 48.97 6.64C46.93 6.64 45.42 8.18 45.42 10.30ZM53.76 3.98L53.76 13.78L55.08 13.78L55.08 10.11C55.08 8.68 55.87 7.87 57.15 7.87C58.27 7.87 58.91 8.48 58.91 9.67L58.91 13.78L60.23 13.78L60.23 9.56C60.23 7.67 59.00 6.72 57.55 6.72C56.20 6.72 55.57 7.35 55.24 7.99L55.08 7.99L55.08 3.98Z"></path></g><defs data-v-fde0c5aa=""><!----></defs><g data-v-fde0c5aa="" id="99937776-b952-49bc-9426-3d2e140ffe9b" stroke="none" fill="#88DF95" transform="matrix(0.407389148030502,0,0,0.407389148030502,25.451318012015435,97.8539854694145)"><path d="M223.488 84.403l-4.685-4.71c-.128-.128-2.97-2.995-7.168-5.939-2.125-1.485-4.583-2.995-7.322-4.173s-5.786-2.099-9.113-2.099h-.128c-5.478.051-11.392 1.741-17.817 4.352-9.625 3.942-20.454 10.087-31.411 17.126-9.959 6.4-19.968 13.543-29.133 20.377L99.559 99.43c.845-2.867 1.331-5.888 1.331-9.011 0-17.997-14.592-32.589-32.589-32.589S35.712 72.422 35.712 90.419s14.592 32.589 32.589 32.589a32.485 32.485 0 0 0 14.823-3.584 540.415 540.415 0 0 0 10.01 8.243c-2.739 2.227-5.197 4.224-7.194 5.888-1.305 1.101-2.381 1.997-3.328 2.791-4.326-2.125-9.191-3.353-14.311-3.353-17.997 0-32.589 14.592-32.589 32.589s14.592 32.589 32.589 32.589 32.589-14.592 32.589-32.589c0-3.353-.563-6.554-1.51-9.575l17.331-10.01c12.518 9.344 26.649 19.226 40.013 27.059 7.168 4.198 14.106 7.808 20.531 10.445 6.451 2.611 12.339 4.301 17.817 4.352h.102c3.328 0 6.375-.922 9.113-2.099 4.121-1.792 7.629-4.301 10.214-6.349s4.198-3.686 4.301-3.789l4.685-4.71-74.982-43.264 74.983-43.239zm-11.955 84.045zm-5.248 4.378c-.231.154-.435.333-.691.487-1.69 1.178-3.609 2.304-5.453 3.097s-3.609 1.229-4.941 1.203h-.051c-3.303 0-8.269-1.229-14.029-3.584-8.653-3.533-19.097-9.421-29.747-16.256s-21.504-14.643-31.232-21.965l-2.713-2.048-31.053 17.92 2.048 4.275a22.217 22.217 0 0 1 2.201 9.625c0 6.195-2.483 11.75-6.553 15.795-4.045 4.045-9.6 6.554-15.795 6.554s-11.725-2.483-15.795-6.553c-4.045-4.071-6.528-9.6-6.553-15.795 0-6.195 2.483-11.75 6.553-15.795 4.045-4.045 9.6-6.553 15.795-6.553 4.48 0 8.627 1.331 12.16 3.609l3.277 2.125 2.918-2.611c.691-.614 2.765-2.406 5.837-4.966s7.168-5.913 12.007-9.754l5.017-3.993-5.017-3.993c-8.858-7.04-15.309-12.519-17.433-14.362l-2.969-2.585-3.277 2.201a22.134 22.134 0 0 1-12.519 3.84c-6.195 0-11.725-2.483-15.795-6.553-4.045-4.07-6.553-9.626-6.553-15.795 0-6.195 2.483-11.751 6.553-15.795s9.6-6.553 15.795-6.553 11.751 2.483 15.795 6.553 6.553 9.6 6.553 15.795c0 3.277-.717 6.374-1.997 9.216l-1.92 4.224 30.72 17.715 2.713-2.048c12.953-9.779 27.955-20.377 41.754-28.442 6.887-4.045 13.465-7.45 19.226-9.779 5.76-2.355 10.726-3.609 14.029-3.584h.025c1.357 0 3.149.435 5.043 1.254 2.073.896 4.224 2.227 6.067 3.558L128 127.668l78.285 45.159z"></path></g><defs data-v-fde0c5aa=""><!----></defs><g data-v-fde0c5aa="" id="6fec7b2e-a46c-488d-aef9-f3c3bee7ff98" fill="#FFFFFF" transform="matrix(0.7437288085354271,0,0,0.7437288085354271,129.1111660921636,161.81463899600894)"><path d="M0.52 12.39C0.52 12.63 0.55 12.68 0.74 12.68C1.06 12.68 2.03 12.64 2.45 12.64C2.87 12.64 7.22 12.68 7.55 12.68C7.81 12.68 7.88 12.66 7.90 12.49C7.95 12.08 8.19 10.72 8.19 10.60C8.19 10.47 8.04 10.44 7.87 10.43C7.77 10.42 7.69 10.46 7.67 10.56L7.50 11.76C7.46 12.05 7.45 12.03 7.22 12.04C7.07 12.05 4.56 12.12 3.14 12.12C3.09 12.12 3.05 11.38 3.05 10.54L3.05 6.66C3.05 5.40 3.07 3.70 3.16 3.70L4.14 3.70C4.38 3.70 4.41 3.63 4.41 3.44C4.41 3.23 4.40 3.19 4.16 3.19C3.84 3.19 2.90 3.23 2.48 3.23C2.06 3.23 1.12 3.19 0.90 3.19C0.67 3.19 0.62 3.22 0.62 3.44C0.62 3.65 0.66 3.70 0.85 3.70L1.68 3.70C1.72 3.70 1.75 4.23 1.75 4.90L1.75 8.13C1.75 10.07 1.72 12.18 1.64 12.18L0.80 12.18C0.57 12.18 0.52 12.21 0.52 12.39ZM15.81 12.39C15.81 12.63 15.83 12.68 16.03 12.68C16.35 12.68 17.32 12.64 17.74 12.64C18.16 12.64 22.67 12.68 22.99 12.68C23.11 12.68 23.27 12.66 23.27 12.49C23.27 12.07 23.31 11.23 23.31 10.53C23.31 10.39 23.16 10.39 23.03 10.39C22.92 10.39 22.79 10.39 22.79 10.51C22.78 11.06 22.78 11.41 22.75 11.76C22.72 12.01 22.72 12.04 22.62 12.04C22.47 12.04 19.84 12.08 18.34 12.08C18.27 12.08 18.23 10.11 18.19 8.26C18.19 8.06 18.23 8.09 18.37 8.09L20.65 8.09C21.35 8.09 21.38 8.20 21.38 8.30L21.38 9.00C21.38 9.14 21.56 9.14 21.67 9.14C21.77 9.14 21.90 9.13 21.90 9.02C21.90 8.83 21.87 8.33 21.87 7.83C21.87 7.32 21.90 6.83 21.90 6.71C21.90 6.59 21.76 6.58 21.66 6.58C21.55 6.58 21.38 6.59 21.38 6.72L21.38 7.45C21.38 7.62 20.93 7.63 20.65 7.63L18.31 7.63C18.20 7.63 18.19 7.63 18.19 7.45C18.17 6.75 18.16 6.06 18.16 5.46C18.16 5.12 18.16 3.71 18.24 3.71C19.47 3.71 21.98 3.75 21.98 3.81C21.98 3.99 21.94 4.83 21.94 4.89C21.94 5.04 22.01 5.10 22.19 5.10C22.39 5.10 22.46 5.08 22.46 4.94C22.46 3.85 22.51 3.36 22.51 3.09C22.51 2.91 22.43 2.90 22.23 2.90C22.04 2.90 22.04 2.95 22.01 3.11C21.99 3.25 22.06 3.25 21.15 3.25C20.54 3.25 18.40 3.29 17.63 3.29C17.14 3.29 16.20 3.25 16.10 3.25C15.97 3.25 15.92 3.30 15.92 3.49C15.92 3.72 15.99 3.74 16.16 3.74L16.81 3.74C16.87 3.74 16.94 4.79 16.94 5.71C16.94 5.80 17.00 8.27 17.00 9.83L17.00 11.17C17.00 11.84 16.97 12.18 16.94 12.18L16.09 12.18C15.86 12.18 15.81 12.21 15.81 12.39ZM31.49 5.77C31.49 9.07 36.47 8.20 36.47 10.65C36.47 11.59 35.63 12.31 34.65 12.31C33.82 12.31 32.23 11.83 32.20 11.47L32.12 10.15C32.10 9.97 32.03 9.91 31.85 9.91L31.78 9.91C31.57 9.91 31.57 10.00 31.57 10.12C31.57 10.32 31.68 11.66 31.71 12.17C31.72 12.38 32.98 12.85 34.52 12.85C36.09 12.85 37.70 11.87 37.70 10.11C37.70 6.79 32.73 7.87 32.73 5.32C32.73 4.31 33.52 3.56 34.55 3.56C35.57 3.56 36.67 4.58 36.67 4.89C36.67 5.01 36.62 5.73 36.62 5.78C36.62 5.92 36.67 5.99 36.93 5.99C37.17 5.99 37.18 5.94 37.18 5.75C37.18 5.04 37.27 3.68 37.27 3.53C37.27 3.30 37.23 3.29 36.96 3.29C36.74 3.29 36.72 3.32 36.71 3.53C36.71 3.61 36.69 3.78 36.65 3.78C36.60 3.78 36.51 3.74 36.44 3.68C35.64 3.14 35.03 3.08 34.52 3.08C33.00 3.08 31.49 4.17 31.49 5.77ZM45.88 5.77C45.88 9.07 50.86 8.20 50.86 10.65C50.86 11.59 50.02 12.31 49.04 12.31C48.22 12.31 46.62 11.83 46.59 11.47L46.51 10.15C46.49 9.97 46.42 9.91 46.24 9.91L46.17 9.91C45.96 9.91 45.96 10.00 45.96 10.12C45.96 10.32 46.07 11.66 46.10 12.17C46.12 12.38 47.38 12.85 48.92 12.85C50.48 12.85 52.09 11.87 52.09 10.11C52.09 6.79 47.12 7.87 47.12 5.32C47.12 4.31 47.91 3.56 48.94 3.56C49.97 3.56 51.06 4.58 51.06 4.89C51.06 5.01 51.02 5.73 51.02 5.78C51.02 5.92 51.06 5.99 51.32 5.99C51.56 5.99 51.58 5.94 51.58 5.75C51.58 5.04 51.66 3.68 51.66 3.53C51.66 3.30 51.62 3.29 51.35 3.29C51.13 3.29 51.11 3.32 51.10 3.53C51.10 3.61 51.09 3.78 51.04 3.78C50.99 3.78 50.90 3.74 50.83 3.68C50.04 3.14 49.42 3.08 48.92 3.08C47.39 3.08 45.88 4.17 45.88 5.77ZM69.72 12.39C69.72 12.63 69.76 12.68 69.96 12.68C70.28 12.68 71.04 12.64 71.75 12.64C72.41 12.64 73.21 12.68 73.43 12.68C73.60 12.68 73.63 12.61 73.63 12.40C73.63 12.24 73.60 12.18 73.43 12.18L72.46 12.18C72.37 12.18 72.34 9.55 72.34 7.76L72.34 5.87C72.34 5.14 72.37 3.70 72.46 3.70L73.37 3.70C73.60 3.70 73.63 3.68 73.63 3.49C73.63 3.25 73.60 3.19 73.43 3.19C73.11 3.19 72.44 3.23 71.78 3.23C70.97 3.23 70.25 3.19 70.03 3.19C69.85 3.19 69.78 3.21 69.78 3.44C69.78 3.68 69.86 3.70 70.03 3.70L70.95 3.70C70.99 3.70 71.06 4.79 71.06 5.71L71.06 7.08C71.06 8.92 71.05 12.18 70.94 12.18L70.01 12.18C69.79 12.18 69.72 12.19 69.72 12.39ZM81.73 5.77C81.73 9.07 86.72 8.20 86.72 10.65C86.72 11.59 85.88 12.31 84.90 12.31C84.07 12.31 82.47 11.83 82.45 11.47L82.36 10.15C82.35 9.97 82.28 9.91 82.10 9.91L82.03 9.91C81.82 9.91 81.82 10.00 81.82 10.12C81.82 10.32 81.93 11.66 81.96 12.17C81.97 12.38 83.23 12.85 84.77 12.85C86.34 12.85 87.95 11.87 87.95 10.11C87.95 6.79 82.98 7.87 82.98 5.32C82.98 4.31 83.76 3.56 84.80 3.56C85.82 3.56 86.91 4.58 86.91 4.89C86.91 5.01 86.87 5.73 86.87 5.78C86.87 5.92 86.91 5.99 87.18 5.99C87.42 5.99 87.43 5.94 87.43 5.75C87.43 5.04 87.51 3.68 87.51 3.53C87.51 3.30 87.47 3.29 87.21 3.29C86.98 3.29 86.97 3.32 86.95 3.53C86.95 3.61 86.94 3.78 86.90 3.78C86.84 3.78 86.76 3.74 86.69 3.68C85.89 3.14 85.27 3.08 84.77 3.08C83.24 3.08 81.73 4.17 81.73 5.77ZM105.64 12.39C105.64 12.63 105.67 12.68 105.87 12.68C106.11 12.68 106.61 12.64 107.03 12.64C107.45 12.64 107.94 12.68 108.26 12.68C108.43 12.68 108.46 12.61 108.46 12.40C108.46 12.24 108.43 12.18 108.26 12.18L107.30 12.18C107.24 12.18 107.23 11.54 107.23 10.79C107.23 8.96 107.27 6.13 107.34 4.28C107.37 3.88 107.39 3.91 107.53 4.27L110.80 12.32C110.89 12.54 110.96 12.74 111.08 12.74C111.17 12.74 111.24 12.63 111.33 12.45C111.66 11.79 111.85 11.75 112.11 11.09L114.70 4.47C114.83 4.16 114.87 4.02 114.88 4.47C114.91 5.66 114.95 8.47 114.95 9.74C114.95 10.99 114.91 12.18 114.86 12.18L114.23 12.18C114.00 12.18 113.93 12.19 113.93 12.39C113.93 12.63 113.96 12.68 114.16 12.68C114.35 12.68 115.05 12.64 115.65 12.64C116.07 12.64 116.83 12.68 117.15 12.68C117.32 12.68 117.35 12.61 117.35 12.40C117.35 12.22 117.29 12.18 117.12 12.18L116.40 12.18C116.28 12.18 116.19 8.44 116.19 6.03L116.19 4.77C116.19 4.17 116.21 3.77 116.26 3.70L116.91 3.70C117.14 3.70 117.18 3.68 117.18 3.49C117.18 3.25 117.17 3.19 116.97 3.19C116.65 3.19 115.96 3.23 115.54 3.23L114.87 3.23C114.65 3.23 114.62 3.29 114.51 3.58L111.76 10.72C111.68 10.95 111.65 11.02 111.54 10.74L108.60 3.40C108.53 3.22 108.47 3.19 108.33 3.19C108.25 3.19 107.76 3.23 107.45 3.23C106.95 3.23 106.09 3.19 105.90 3.19C105.76 3.19 105.76 3.26 105.76 3.47C105.76 3.64 105.76 3.70 105.90 3.70L106.60 3.70C106.86 3.70 106.86 3.72 106.86 3.84C106.86 4.82 106.65 9.94 106.61 10.79C106.57 11.55 106.57 12.18 106.51 12.18L105.94 12.18C105.71 12.18 105.64 12.19 105.64 12.39ZM125.31 8.15C125.31 11.17 127.65 12.80 129.91 12.80C132.69 12.80 134.67 10.89 134.67 8.06C134.67 5.33 132.92 3.11 130.12 3.11C127.51 3.11 125.31 5.10 125.31 8.15ZM126.71 7.77C126.71 5.64 128.00 3.58 129.98 3.58C132.22 3.58 133.29 5.81 133.29 7.94C133.29 10.08 132.19 12.32 129.92 12.32C127.93 12.32 126.71 10.28 126.71 7.77ZM142.77 3.51C142.77 3.72 142.84 3.79 143.04 3.79L143.85 3.77C143.95 3.77 143.99 6.61 143.99 8.55L143.99 10.42C143.99 11.30 143.98 12.18 143.93 12.18L143.33 12.18C143.11 12.18 143.04 12.19 143.04 12.39C143.04 12.63 143.08 12.68 143.28 12.68C143.40 12.68 144.23 12.64 144.65 12.64C145.07 12.64 145.84 12.68 146.16 12.68C146.33 12.68 146.36 12.61 146.36 12.40C146.36 12.24 146.33 12.18 146.16 12.18L145.35 12.18C145.28 12.18 145.19 9.18 145.19 8.37C145.19 8.30 145.19 8.26 145.31 8.26C145.70 8.26 146.30 8.27 146.59 8.27C148.83 8.32 148.97 10.00 148.97 11.68L148.97 12.49C148.97 12.61 149.03 12.64 149.13 12.64C149.13 12.64 150.57 12.68 151.05 12.68C151.21 12.68 151.27 12.64 151.27 12.53C151.27 12.24 151.21 12.18 151.06 12.18L150.42 12.18C150.32 12.18 150.29 12.14 150.26 11.31C150.18 8.99 148.81 8.34 147.90 8.05C147.76 8.01 147.78 8.01 147.90 7.95C148.48 7.69 149.80 6.94 149.80 5.63C149.80 3.63 148.11 3.21 146.71 3.21C146.38 3.21 145.10 3.29 144.68 3.29C144.26 3.29 143.28 3.26 143.05 3.26C142.87 3.26 142.77 3.28 142.77 3.51ZM145.19 7.80L145.19 4.40C145.19 4.05 145.22 3.68 145.26 3.68C145.47 3.65 145.75 3.65 145.98 3.65C147.28 3.65 148.53 4.47 148.53 5.82C148.53 6.99 147.98 7.57 147.32 7.88C147.28 7.90 147.24 7.90 147.17 7.90C146.69 7.88 145.98 7.88 145.38 7.87C145.21 7.87 145.19 7.85 145.19 7.80ZM158.75 12.39C158.75 12.63 158.77 12.68 158.97 12.68C159.29 12.68 160.26 12.64 160.68 12.64C161.10 12.64 165.61 12.68 165.93 12.68C166.05 12.68 166.21 12.66 166.21 12.49C166.21 12.07 166.25 11.23 166.25 10.53C166.25 10.39 166.10 10.39 165.97 10.39C165.86 10.39 165.73 10.39 165.73 10.51C165.72 11.06 165.72 11.41 165.69 11.76C165.66 12.01 165.66 12.04 165.56 12.04C165.41 12.04 162.78 12.08 161.28 12.08C161.21 12.08 161.17 10.11 161.13 8.26C161.13 8.06 161.17 8.09 161.31 8.09L163.59 8.09C164.29 8.09 164.32 8.20 164.32 8.30L164.32 9.00C164.32 9.14 164.50 9.14 164.61 9.14C164.71 9.14 164.84 9.13 164.84 9.02C164.84 8.83 164.81 8.33 164.81 7.83C164.81 7.32 164.84 6.83 164.84 6.71C164.84 6.59 164.70 6.58 164.60 6.58C164.49 6.58 164.32 6.59 164.32 6.72L164.32 7.45C164.32 7.62 163.87 7.63 163.59 7.63L161.25 7.63C161.14 7.63 161.13 7.63 161.13 7.45C161.11 6.75 161.10 6.06 161.10 5.46C161.10 5.12 161.10 3.71 161.18 3.71C162.41 3.71 164.92 3.75 164.92 3.81C164.92 3.99 164.88 4.83 164.88 4.89C164.88 5.04 164.95 5.10 165.13 5.10C165.33 5.10 165.40 5.08 165.40 4.94C165.40 3.85 165.45 3.36 165.45 3.09C165.45 2.91 165.37 2.90 165.17 2.90C164.98 2.90 164.98 2.95 164.95 3.11C164.93 3.25 165.00 3.25 164.09 3.25C163.48 3.25 161.34 3.29 160.57 3.29C160.08 3.29 159.14 3.25 159.04 3.25C158.91 3.25 158.86 3.30 158.86 3.49C158.86 3.72 158.93 3.74 159.10 3.74L159.75 3.74C159.81 3.74 159.88 4.79 159.88 5.71C159.88 5.80 159.94 8.27 159.94 9.83L159.94 11.17C159.94 11.84 159.91 12.18 159.88 12.18L159.03 12.18C158.80 12.18 158.75 12.21 158.75 12.39ZM174.50 12.07C174.50 12.31 174.94 12.75 175.36 12.75C175.55 12.75 175.99 12.35 175.99 11.90C175.99 11.51 175.42 11.20 175.15 11.20C174.89 11.20 174.50 11.76 174.50 12.07Z"></path></g></svg>